<?xml version="1.0" encoding="UTF-8" standalone="no"?>
<!-- Created with Inkscape (http://www.inkscape.org/) -->

<svg
   width="4646.2622mm"
   height="4646.2622mm"
   viewBox="0 0 4646.2622 4646.2622"
   version="1.1"
   id="svg5"
   xmlns="http://www.w3.org/2000/svg"
   xmlns:svg="http://www.w3.org/2000/svg">
  <defs
     id="defs2" />
  <g
     id="layer2"
     style="display:inline"
     transform="translate(-13101.821,21266.228)">
    <g
       id="g15">
      <rect
         style="fill:#ffffff;fill-opacity:1;stroke:#ffffff;stroke-width:67.239;stroke-linecap:round;stroke-linejoin:round;stroke-dasharray:none;stroke-opacity:1;stop-color:#000000"
         id="rect1"
         width="4579.0234"
         height="4579.0234"
         x="13135.44"
         y="-21232.609"
         ry="458.36725" />
      <g
         id="g14"
         transform="translate(1.484375e-4,-263.01366)">
        <path
           style="fill:#003459;fill-opacity:1;stroke:#003459;stroke-width:8;stroke-linecap:butt;stroke-linejoin:miter;stroke-dasharray:none;stroke-opacity:1"
           d="m 15799.645,-17181.147 -79.375,-1022.687 238.125,-79.375 358.842,641.615 z"
           id="path1" />
        <path
           style="fill:#003459;fill-opacity:1;stroke:#003459;stroke-width:0;stroke-linecap:butt;stroke-linejoin:miter;stroke-dasharray:none;stroke-opacity:1"
           d="m 15945.166,-18144.303 c -280.76,44.26 -374.484,59.461 -549.011,-142.214 l 16.537,-317.499 585.391,-271.198 228.203,228.203 c -1.555,150.973 -82.232,347.833 -109.141,416.718 -26.908,68.885 -171.979,85.99 -171.979,85.99 z"
           id="path2" />
        <path
           style="fill:#003459;fill-opacity:1;stroke:#003459;stroke-width:8;stroke-linecap:butt;stroke-linejoin:miter;stroke-dasharray:none;stroke-opacity:1"
           d="m 15424.952,-18680.084 c -5.806,-204.03 9.516,-177.644 188.516,-119.063 z"
           id="path3" />
        <path
           style="fill:#003459;fill-opacity:1;stroke:#003459;stroke-width:8;stroke-linecap:butt;stroke-linejoin:miter;stroke-dasharray:none;stroke-opacity:1"
           d="m 15742.642,-18853.781 c 10.912,-202.267 36.397,-144.019 167.782,-31.616 z"
           id="path4" />
        <path
           style="fill:#003459;fill-opacity:1;stroke:#003459;stroke-width:8;stroke-linecap:butt;stroke-linejoin:miter;stroke-dasharray:none;stroke-opacity:1"
           d="m 13768.55,-18023.449 c 0,0 142.709,-342.228 203.459,-355.469 60.75,-13.239 135.512,2.765 208.136,93.545 l -30.839,246.903 -69.453,-82.683 c -100.404,138.29 -223.125,207.372 -311.303,97.704 z"
           id="path5" />
        <path
           id="path6"
           style="fill:#003459;fill-opacity:1;stroke:#003459;stroke-width:8;stroke-linecap:butt;stroke-linejoin:miter;stroke-dasharray:none;stroke-opacity:1"
           d="m 15069.397,-19251.333 c -74.238,10.574 -223.679,349.739 -223.679,349.739 0,0 -120.415,-50.331 -184.077,-62.303 -47.721,-8.974 -109.243,-38.888 -145.522,-6.614 -84.941,135.549 94.962,300.705 197.088,333.228 l -3.028,8.409 -172.153,7.204 c -6.728,80.384 288.729,136.02 349.937,174.655 -229.175,185.756 -348.392,478.252 -480.688,699.581 l 525.859,506.016 201.745,-909.505 303.083,-927.649 c -76.961,-74.169 -294.327,-183.337 -368.565,-172.761 z" />
        <path
           style="fill:#003459;fill-opacity:1;stroke:#003459;stroke-width:8;stroke-linecap:butt;stroke-linejoin:miter;stroke-dasharray:none;stroke-opacity:1"
           d="m 15161.314,-19295.651 c 27.292,-36.783 57.766,-69.649 90.1,-100.578 35.685,-34.135 73.633,-65.91 112.067,-97.989 -104.434,-90.133 -332.26,64.382 -249.68,109.729 10.955,44.708 -12.35,28.242 -27.749,72.467 z"
           id="path7" />
        <path
           style="fill:#003459;fill-opacity:1;stroke:#003459;stroke-width:8;stroke-linecap:butt;stroke-linejoin:miter;stroke-dasharray:none;stroke-opacity:1"
           d="m 15356.944,-19247.902 c 41.508,-127.647 91.359,-182.864 198.663,-249.315 l 155.217,69.776 c 17.295,93.481 -133.577,188.44 -233.979,123.361 -24.183,24.05 -16.451,44.991 -45.896,56.178 z"
           id="path8" />
        <path
           style="fill:#003459;fill-opacity:1;stroke:#003459;stroke-width:8;stroke-linecap:butt;stroke-linejoin:miter;stroke-dasharray:none;stroke-opacity:1"
           d="m 14565.949,-18675.31 c -83.001,-50.009 -177.593,-29.02 -197.114,-18.508 -19.521,10.511 -35.445,29.075 -16.309,51.256 19.135,22.181 213.423,-32.748 213.423,-32.748 z"
           id="path9" />
        <path
           style="fill:#003459;fill-opacity:1;stroke:#003459;stroke-width:8;stroke-linecap:butt;stroke-linejoin:miter;stroke-dasharray:none;stroke-opacity:1"
           d="m 14446.122,-17591.666 c 58.256,-33.67 140.317,-177.734 140.317,-177.734 l -63.143,-182.412 -137.978,-37.418 c 0,0 -243.164,267.001 -208.136,318.051 35.028,51.05 161.674,136.714 268.94,79.513 z"
           id="path10" />
        <path
           style="display:inline;fill:none;stroke:#003459;stroke-width:100;stroke-linecap:round;stroke-linejoin:miter;stroke-dasharray:none;stroke-opacity:1"
           d="m 15410.629,-17024.714 c 2464.305,-961.096 1969.783,-4252.292 0,-2579.339"
           id="path11" />
        <path
           style="fill:#003459;fill-opacity:1;stroke:#003459;stroke-width:8;stroke-linecap:butt;stroke-linejoin:miter;stroke-dasharray:none;stroke-opacity:1"
           d="m 15051.903,-17394.109 c 104.002,-115.695 221.733,-217.661 267.108,-391.983 78.52,-354.726 -93.112,34.391 -135.599,115.756 -42.486,81.365 -106.585,122.369 -106.585,122.369 z"
           id="path12" />
        <path
           style="fill:#003459;fill-opacity:1;stroke:#003459;stroke-width:8;stroke-linecap:butt;stroke-linejoin:miter;stroke-dasharray:none;stroke-opacity:1"
           d="m 15539.384,-17179.719 c 0,0 -117.327,-6.764 -155.248,-158.79 -37.921,-152.026 -10.445,-373.595 79.513,-406.918 89.958,-33.323 310.313,96.06 141.216,240.094 -20.378,-101.816 -109.773,-38.089 -117.18,36.008 -7.406,74.098 5.586,128.118 125.635,219.683 z"
           id="path13" />
        <path
           style="display:inline;fill:none;stroke:#003459;stroke-width:100;stroke-linecap:round;stroke-linejoin:miter;stroke-dasharray:none;stroke-opacity:1"
           d="m 15410.629,-17024.714 c -2464.305,-961.096 -1969.783,-4252.292 0,-2579.339"
           id="path14" />
      </g>
    </g>
  </g>
</svg>
